<?xml version="1.0" encoding="UTF-8"?>
<!DOCTYPE svg PUBLIC "-//W3C//DTD SVG 1.1//EN" "http://www.w3.org/Graphics/SVG/1.1/DTD/svg11.dtd">
<svg xmlns="http://www.w3.org/2000/svg" version="1.1" width="500px" height="500px" style="shape-rendering:geometricPrecision; text-rendering:geometricPrecision; image-rendering:optimizeQuality; fill-rule:evenodd; clip-rule:evenodd" xmlns:xlink="http://www.w3.org/1999/xlink">
<g><path style="opacity:1" fill="#fefefe" d="M -0.5,-0.5 C 166.167,-0.5 332.833,-0.5 499.5,-0.5C 499.5,166.167 499.5,332.833 499.5,499.5C 332.833,499.5 166.167,499.5 -0.5,499.5C -0.5,332.833 -0.5,166.167 -0.5,-0.5 Z"/></g>
<g><path style="opacity:1" fill="#ebeae9" d="M 309.5,226.5 C 296.279,222.022 283.279,222.522 270.5,228C 268.192,230.128 266.526,232.628 265.5,235.5C 264.167,235.5 262.833,235.5 261.5,235.5C 261.5,238.5 261.5,241.5 261.5,244.5C 262.957,246.785 264.957,248.618 267.5,250C 272.604,251.576 277.604,253.076 282.5,254.5C 278.168,253.903 273.835,253.737 269.5,254C 270.056,254.383 270.389,254.883 270.5,255.5C 269.167,256.167 267.833,256.833 266.5,257.5C 263.192,258.065 261.192,260.065 260.5,263.5C 259.715,261.626 259.048,259.626 258.5,257.5C 259.954,255.542 261.621,253.709 263.5,252C 261.681,249.511 259.848,247.011 258,244.5C 254.983,236.217 257.15,229.717 264.5,225C 276.18,220.371 288.18,219.371 300.5,222C 304.035,222.663 307.035,224.163 309.5,226.5 Z"/></g>
<g><path style="opacity:1" fill="#fedd5d" d="M 207.5,223.5 C 210.5,223.5 213.5,223.5 216.5,223.5C 219.054,232.745 222.054,241.745 225.5,250.5C 226.424,255.607 227.758,260.607 229.5,265.5C 229.5,266.167 229.833,266.5 230.5,266.5C 229.442,272.06 227.776,276.726 225.5,280.5C 224.871,277.603 223.871,274.936 222.5,272.5C 218.279,256.941 213.446,241.608 208,226.5C 207.51,227.793 207.343,229.127 207.5,230.5C 206.833,230.5 206.5,230.167 206.5,229.5C 206.325,227.379 206.659,225.379 207.5,223.5 Z"/></g>
<g><path style="opacity:1" fill="#fddd5d" d="M 243.5,223.5 C 246.167,223.5 248.833,223.5 251.5,223.5C 254.379,234.601 256.712,245.934 258.5,257.5C 259.048,259.626 259.715,261.626 260.5,263.5C 260.659,267.291 261.325,270.958 262.5,274.5C 262.833,277.167 263.167,279.833 263.5,282.5C 261.167,282.5 258.833,282.5 256.5,282.5C 254.821,282.715 253.821,282.048 253.5,280.5C 250.76,263.132 247.76,245.799 244.5,228.5C 244.631,227.761 244.464,227.094 244,226.5C 243.31,227.738 242.81,227.738 242.5,226.5C 242.263,225.209 242.596,224.209 243.5,223.5 Z"/></g>
<g><path style="opacity:1" fill="#fcdd60" d="M 309.5,226.5 C 311.518,227.175 313.184,228.341 314.5,230C 313.68,231.8 313.014,233.634 312.5,235.5C 310.833,234.833 309.167,234.167 307.5,233.5C 303.929,229.879 299.596,227.546 294.5,226.5C 289.93,225.559 285.263,225.226 280.5,225.5C 273.79,226.361 270.623,230.028 271,236.5C 272.167,237.667 273.333,238.833 274.5,240C 284.143,242.072 293.81,244.072 303.5,246C 318.395,253.975 320.395,264.475 309.5,277.5C 299.667,282.184 289.334,283.518 278.5,281.5C 274.297,279.472 270.464,276.805 267,273.5C 263.99,268.155 263.824,262.822 266.5,257.5C 267.833,256.833 269.167,256.167 270.5,255.5C 275.355,253.969 276.189,254.969 273,258.5C 272.271,269.126 277.104,275.959 287.5,279C 292.885,279.733 298.218,279.567 303.5,278.5C 311.804,275.557 314.471,269.89 311.5,261.5C 309.603,258.441 306.936,256.274 303.5,255C 292.66,252.91 281.993,250.244 271.5,247C 267.256,244.346 265.256,240.513 265.5,235.5C 266.526,232.628 268.192,230.128 270.5,228C 283.279,222.522 296.279,222.022 309.5,226.5 Z"/></g>
<g><path style="opacity:1" fill="#c5c5c5" d="M 207.5,223.5 C 206.659,225.379 206.325,227.379 206.5,229.5C 205.833,231.167 205.167,232.833 204.5,234.5C 203.542,234.047 202.708,233.381 202,232.5C 201.333,229.833 201.333,227.167 202,224.5C 203.678,222.447 205.511,222.113 207.5,223.5 Z"/></g>
<g><path style="opacity:1" fill="#9d9a93" d="M 222.5,272.5 C 222.5,272.833 222.5,273.167 222.5,273.5C 221.292,274.234 219.959,274.567 218.5,274.5C 216.005,263.852 213.505,253.186 211,242.5C 209.052,240.771 207.552,238.771 206.5,236.5C 206.517,234.435 206.85,232.435 207.5,230.5C 207.343,229.127 207.51,227.793 208,226.5C 213.446,241.608 218.279,256.941 222.5,272.5 Z"/></g>
<g><path style="opacity:1" fill="#98968e" d="M 244.5,228.5 C 247.76,245.799 250.76,263.132 253.5,280.5C 252.414,280.38 251.747,279.713 251.5,278.5C 248.199,262.895 245.199,247.229 242.5,231.5C 242.285,229.821 242.952,228.821 244.5,228.5 Z"/></g>
<g><path style="opacity:1" fill="#ebebe9" d="M 216.5,223.5 C 213.5,223.5 210.5,223.5 207.5,223.5C 205.511,222.113 203.678,222.447 202,224.5C 201.333,227.167 201.333,229.833 202,232.5C 202.708,233.381 203.542,234.047 204.5,234.5C 202.756,246.22 200.756,257.887 198.5,269.5C 197.879,273.942 196.879,278.275 195.5,282.5C 196.5,282.5 197.5,282.5 198.5,282.5C 198.288,284.384 197.288,285.717 195.5,286.5C 194.833,291.651 194.166,296.651 193.5,301.5C 194.103,296.381 193.436,291.715 191.5,287.5C 191.585,286.005 190.919,285.005 189.5,284.5C 188.339,280.205 188.172,275.871 189,271.5C 192.335,255.492 195.668,239.492 199,223.5C 200.863,221.051 203.363,220.051 206.5,220.5C 210.265,220.4 213.599,221.4 216.5,223.5 Z"/></g>
<g><path style="opacity:1" fill="#b2b2ae" d="M 294.5,226.5 C 299.596,227.546 303.929,229.879 307.5,233.5C 305.712,234.622 303.712,234.789 301.5,234C 299.333,232.5 297.167,231 295,229.5C 294.517,228.552 294.351,227.552 294.5,226.5 Z"/></g>
<g><path style="opacity:1" fill="#efeeed" d="M 251.5,223.5 C 248.833,223.5 246.167,223.5 243.5,223.5C 236.82,222.37 234.32,225.37 236,232.5C 236.566,234.723 237.4,236.723 238.5,238.5C 235.675,247.643 232.675,256.643 229.5,265.5C 227.758,260.607 226.424,255.607 225.5,250.5C 228.733,241.301 231.9,231.968 235,222.5C 237.077,221.042 239.41,220.376 242,220.5C 245.423,221.078 248.59,222.078 251.5,223.5 Z"/></g>
<g><path style="opacity:1" fill="#cdcdcc" d="M 243.5,223.5 C 242.596,224.209 242.263,225.209 242.5,226.5C 240.875,230.303 239.542,234.303 238.5,238.5C 237.4,236.723 236.566,234.723 236,232.5C 234.32,225.37 236.82,222.37 243.5,223.5 Z"/></g>
<g><path style="opacity:1" fill="#f7e08b" d="M 206.5,229.5 C 206.5,230.167 206.833,230.5 207.5,230.5C 206.85,232.435 206.517,234.435 206.5,236.5C 206.5,236.833 206.5,237.167 206.5,237.5C 205.566,238.568 205.232,239.901 205.5,241.5C 202.022,253.899 200.355,266.566 200.5,279.5C 199.833,276.167 199.167,272.833 198.5,269.5C 200.756,257.887 202.756,246.22 204.5,234.5C 205.167,232.833 205.833,231.167 206.5,229.5 Z"/></g>
<g><path style="opacity:1" fill="#ababab" d="M 242.5,231.5 C 245.199,247.229 248.199,262.895 251.5,278.5C 251.747,279.713 252.414,280.38 253.5,280.5C 253.821,282.048 254.821,282.715 256.5,282.5C 254.393,283.468 252.059,283.802 249.5,283.5C 249.5,283.167 249.5,282.833 249.5,282.5C 247.891,273.528 246.391,264.528 245,255.5C 242.177,250.235 240.677,244.568 240.5,238.5C 240.41,235.848 241.076,233.515 242.5,231.5 Z"/></g>
<g><path style="opacity:1" fill="#e2e2e1" d="M 280.5,225.5 C 285.263,225.226 289.93,225.559 294.5,226.5C 294.351,227.552 294.517,228.552 295,229.5C 297.167,231 299.333,232.5 301.5,234C 303.712,234.789 305.712,234.622 307.5,233.5C 309.167,234.167 310.833,234.833 312.5,235.5C 306.322,241.305 300.989,240.472 296.5,233C 291.227,230.196 285.893,227.696 280.5,225.5 Z"/></g>
<g><path style="opacity:1" fill="#f6de83" d="M 242.5,226.5 C 242.81,227.738 243.31,227.738 244,226.5C 244.464,227.094 244.631,227.761 244.5,228.5C 242.952,228.821 242.285,229.821 242.5,231.5C 241.076,233.515 240.41,235.848 240.5,238.5C 239.323,240.679 238.323,243.013 237.5,245.5C 235.738,252.785 233.405,259.785 230.5,266.5C 229.833,266.5 229.5,266.167 229.5,265.5C 232.675,256.643 235.675,247.643 238.5,238.5C 239.542,234.303 240.875,230.303 242.5,226.5 Z"/></g>
<g><path style="opacity:1" fill="#b0afad" d="M 265.5,235.5 C 265.256,240.513 267.256,244.346 271.5,247C 281.993,250.244 292.66,252.91 303.5,255C 306.936,256.274 309.603,258.441 311.5,261.5C 310.876,263.834 310.043,266.167 309,268.5C 306.5,262 302,257.5 295.5,255C 285.562,253.765 275.895,251.432 266.5,248C 265.211,246.198 263.544,245.031 261.5,244.5C 261.5,241.5 261.5,238.5 261.5,235.5C 262.833,235.5 264.167,235.5 265.5,235.5 Z"/></g>
<g><path style="opacity:1" fill="#fbfbfa" d="M 282.5,254.5 C 290.594,254.917 297.761,257.584 304,262.5C 306.241,267.624 305.741,272.457 302.5,277C 303.056,277.383 303.389,277.883 303.5,278.5C 298.218,279.567 292.885,279.733 287.5,279C 277.104,275.959 272.271,269.126 273,258.5C 276.189,254.969 275.355,253.969 270.5,255.5C 270.389,254.883 270.056,254.383 269.5,254C 273.835,253.737 278.168,253.903 282.5,254.5 Z"/></g>
<g><path style="opacity:1" fill="#b2b2b2" d="M 206.5,236.5 C 207.552,238.771 209.052,240.771 211,242.5C 213.505,253.186 216.005,263.852 218.5,274.5C 219.959,274.567 221.292,274.234 222.5,273.5C 222.5,274.5 222.5,275.5 222.5,276.5C 220.856,276.714 219.356,276.38 218,275.5C 214.578,262.672 210.744,250.005 206.5,237.5C 206.5,237.167 206.5,236.833 206.5,236.5 Z"/></g>
<g><path style="opacity:1" fill="#fede60" d="M 198.5,269.5 C 199.167,272.833 199.833,276.167 200.5,279.5C 200.715,281.179 200.048,282.179 198.5,282.5C 197.5,282.5 196.5,282.5 195.5,282.5C 196.879,278.275 197.879,273.942 198.5,269.5 Z"/></g>
<g><path style="opacity:1" fill="#dad9d7" d="M 261.5,244.5 C 263.544,245.031 265.211,246.198 266.5,248C 275.895,251.432 285.562,253.765 295.5,255C 302,257.5 306.5,262 309,268.5C 310.043,266.167 310.876,263.834 311.5,261.5C 314.471,269.89 311.804,275.557 303.5,278.5C 303.389,277.883 303.056,277.383 302.5,277C 305.741,272.457 306.241,267.624 304,262.5C 297.761,257.584 290.594,254.917 282.5,254.5C 277.604,253.076 272.604,251.576 267.5,250C 264.957,248.618 262.957,246.785 261.5,244.5 Z"/></g>
<g><path style="opacity:1" fill="#a4a3a0" d="M 266.5,257.5 C 263.824,262.822 263.99,268.155 267,273.5C 270.464,276.805 274.297,279.472 278.5,281.5C 271.94,281.933 266.607,279.6 262.5,274.5C 261.325,270.958 260.659,267.291 260.5,263.5C 261.192,260.065 263.192,258.065 266.5,257.5 Z"/></g>
<g><path style="opacity:1" fill="#e8e8e8" d="M 240.5,238.5 C 240.677,244.568 242.177,250.235 245,255.5C 246.391,264.528 247.891,273.528 249.5,282.5C 248.167,282.5 247.5,283.167 247.5,284.5C 246.504,284.586 245.671,284.252 245,283.5C 243.457,276.578 242.457,269.578 242,262.5C 240.065,256.819 238.565,251.152 237.5,245.5C 238.323,243.013 239.323,240.679 240.5,238.5 Z"/></g>
<g><path style="opacity:1" fill="#dcdbd9" d="M 206.5,237.5 C 210.744,250.005 214.578,262.672 218,275.5C 219.356,276.38 220.856,276.714 222.5,276.5C 222.5,275.5 222.5,274.5 222.5,273.5C 222.5,273.167 222.5,272.833 222.5,272.5C 223.871,274.936 224.871,277.603 225.5,280.5C 223.18,282.226 220.513,282.893 217.5,282.5C 214.661,268.334 210.661,254.668 205.5,241.5C 205.232,239.901 205.566,238.568 206.5,237.5 Z"/></g>
<g><path style="opacity:1" fill="#f7dd79" d="M 249.5,282.5 C 249.5,282.833 249.5,283.167 249.5,283.5C 249.158,284.338 248.492,284.672 247.5,284.5C 247.5,283.167 248.167,282.5 249.5,282.5 Z"/></g>
<g><path style="opacity:1" fill="#ebeae7" d="M 262.5,274.5 C 266.607,279.6 271.94,281.933 278.5,281.5C 289.334,283.518 299.667,282.184 309.5,277.5C 308.284,279.451 306.618,280.951 304.5,282C 300.741,283.879 297.075,285.713 293.5,287.5C 292.833,287.5 292.5,287.833 292.5,288.5C 290.05,288.298 287.717,288.631 285.5,289.5C 285.167,289.5 284.833,289.5 284.5,289.5C 284.611,288.883 284.944,288.383 285.5,288C 277.83,287.416 270.497,285.583 263.5,282.5C 263.167,279.833 262.833,277.167 262.5,274.5 Z"/></g>
<g><path style="opacity:1" fill="#fff4ca" d="M 348.5,287.5 C 351.5,286.167 354.5,286.167 357.5,287.5C 356.833,287.5 356.5,287.833 356.5,288.5C 354.958,287.699 353.292,287.366 351.5,287.5C 351.819,292.363 351.486,297.03 350.5,301.5C 351.103,296.381 350.436,291.715 348.5,287.5 Z"/></g>
<g><path style="opacity:1" fill="#ffe16d" d="M 160.5,287.5 C 161.496,287.414 162.329,287.748 163,288.5C 164.64,292.38 165.307,296.38 165,300.5C 163.197,296.256 161.697,291.922 160.5,287.5 Z"/></g>
<g><path style="opacity:1" fill="#ffe068" d="M 168.5,288.5 C 169.209,287.596 170.209,287.263 171.5,287.5C 172.072,291.505 172.739,295.505 173.5,299.5C 173.167,300.167 172.833,300.833 172.5,301.5C 171.407,296.974 170.073,292.641 168.5,288.5 Z"/></g>
<g><path style="opacity:1" fill="#ffe065" d="M 191.5,287.5 C 193.436,291.715 194.103,296.381 193.5,301.5C 192.391,301.443 191.391,301.11 190.5,300.5C 191.436,296.265 191.769,291.931 191.5,287.5 Z"/></g>
<g><path style="opacity:1" fill="#ffe57e" d="M 210.5,288.5 C 211.568,287.566 212.901,287.232 214.5,287.5C 214.649,288.552 214.483,289.552 214,290.5C 213.184,289.177 212.017,288.511 210.5,288.5 Z"/></g>
<g><path style="opacity:1" fill="#ffdf63" d="M 224.5,287.5 C 225.805,289.397 226.471,291.731 226.5,294.5C 226.167,296.833 225.833,299.167 225.5,301.5C 224.507,296.88 224.173,292.214 224.5,287.5 Z"/></g>
<g><path style="opacity:1" fill="#ffe272" d="M 245.5,286.5 C 247.288,286.215 248.955,286.548 250.5,287.5C 249.189,292.031 249.189,296.531 250.5,301C 248.833,301.667 247.167,301.667 245.5,301C 246.743,299.13 247.41,296.964 247.5,294.5C 247.253,291.651 246.587,288.984 245.5,286.5 Z"/></g>
<g><path style="opacity:1" fill="#ffe47a" d="M 292.5,288.5 C 292.5,287.833 292.833,287.5 293.5,287.5C 294.756,287.461 295.756,287.961 296.5,289C 295.072,289.579 293.738,289.412 292.5,288.5 Z"/></g>
<g><path style="opacity:1" fill="#fede58" d="M 305.5,287.5 C 306.805,289.397 307.471,291.731 307.5,294.5C 307.167,296.833 306.833,299.167 306.5,301.5C 305.507,296.88 305.173,292.214 305.5,287.5 Z"/></g>
<g><path style="opacity:1" fill="#ffdf60" d="M 314.5,287.5 C 315.805,289.397 316.471,291.731 316.5,294.5C 316.167,296.833 315.833,299.167 315.5,301.5C 314.507,296.88 314.173,292.214 314.5,287.5 Z"/></g>
<g><path style="opacity:1" fill="#fff3c5" d="M 184.5,287.5 C 185.485,291.634 185.818,295.968 185.5,300.5C 187.167,300.5 188.833,300.5 190.5,300.5C 188.5,301.833 186.5,301.833 184.5,300.5C 184.5,296.167 184.5,291.833 184.5,287.5 Z"/></g>
<g><path style="opacity:1" fill="#ffe26f" d="M 270.5,287.5 C 271.75,287.577 272.583,288.244 273,289.5C 273.644,293.221 274.477,296.887 275.5,300.5C 274.675,301.386 273.675,301.719 272.5,301.5C 272.043,296.799 271.376,292.132 270.5,287.5 Z"/></g>
<g><path style="opacity:1" fill="#ffe271" d="M 184.5,287.5 C 184.5,291.833 184.5,296.167 184.5,300.5C 183.883,300.389 183.383,300.056 183,299.5C 182.833,297.5 182.667,295.5 182.5,293.5C 182.539,291.048 183.206,289.048 184.5,287.5 Z"/></g>
<g><path style="opacity:1" fill="#ffe16c" d="M 348.5,287.5 C 350.436,291.715 351.103,296.381 350.5,301.5C 348.564,297.285 347.897,292.619 348.5,287.5 Z"/></g>
<g><path style="opacity:1" fill="#ffe580" d="M 356.5,288.5 C 356.5,287.833 356.833,287.5 357.5,287.5C 359.914,288.406 360.747,290.072 360,292.5C 358.149,294.336 355.983,295.17 353.5,295C 354.579,294.044 355.745,293.211 357,292.5C 357.765,290.934 357.598,289.601 356.5,288.5 Z"/></g>
<g><path style="opacity:1" fill="#ffe16c" d="M 203.5,288.5 C 204.267,289.172 204.934,290.005 205.5,291C 208.5,292 211.5,293 214.5,294C 215.554,295.388 215.72,296.888 215,298.5C 214.535,297.069 213.701,295.903 212.5,295C 209.768,294.587 207.101,293.92 204.5,293C 203.62,291.644 203.286,290.144 203.5,288.5 Z"/></g>
<g><path style="opacity:1" fill="#ffe273" d="M 284.5,289.5 C 284.833,289.5 285.167,289.5 285.5,289.5C 285.611,290.117 285.944,290.617 286.5,291C 290.076,291.19 293.242,292.357 296,294.5C 296.667,296.167 296.667,297.833 296,299.5C 295.781,298.062 295.281,296.729 294.5,295.5C 291.548,294.346 288.548,293.346 285.5,292.5C 284.614,291.675 284.281,290.675 284.5,289.5 Z"/></g>
<g><path style="opacity:1" fill="#ffe067" d="M 332.5,288.5 C 335.102,287.031 337.269,287.698 339,290.5C 339.667,292.833 339.667,295.167 339,297.5C 338.758,292.987 336.592,289.987 332.5,288.5 Z"/></g>
<g><path style="opacity:1" fill="#ffdf64" d="M 261.5,288.5 C 262.209,287.596 263.209,287.263 264.5,287.5C 265.758,291.762 266.258,296.096 266,300.5C 264.766,296.285 263.266,292.285 261.5,288.5 Z"/></g>
<g><path style="opacity:1" fill="#ffe580" d="M 285.5,294.5 C 286.133,298.953 288.8,301.12 293.5,301C 286.791,303.104 284.125,300.937 285.5,294.5 Z"/></g>
<g><path style="opacity:1" fill="#ffe272" d="M 326.5,290.5 C 326.612,295.797 329.278,299.297 334.5,301C 327.125,301.122 324.458,297.622 326.5,290.5 Z"/></g>
<g><path style="opacity:1" fill="#ffe169" d="M 227.5,300.5 C 230.024,299.2 232.691,299.2 235.5,300.5C 232.801,301.729 230.135,301.729 227.5,300.5 Z"/></g>
<g><path style="opacity:1" fill="#ffe682" d="M 202.5,295.5 C 204.651,299.084 207.984,300.917 212.5,301C 206.893,302.929 203.56,301.095 202.5,295.5 Z"/></g>
</svg>
