<?xml version="1.0" standalone="no"?>
<!DOCTYPE svg PUBLIC "-//W3C//DTD SVG 20010904//EN"
 "http://www.w3.org/TR/2001/REC-SVG-20010904/DTD/svg10.dtd">
<svg version="1.0" xmlns="http://www.w3.org/2000/svg"
 width="278.000000pt" height="151.000000pt" viewBox="0 0 278.000000 151.000000"
 preserveAspectRatio="xMidYMid meet">

<g transform="translate(0.000000,151.000000) scale(0.100000,-0.100000)"
fill="#000000" stroke="none">
<path d="M855 1113 c-27 -155 -97 -506 -105 -527 -9 -24 -7 -26 18 -26 l27 0
-3 68 c-3 50 7 122 37 271 23 111 41 205 41 209 1 4 38 -111 84 -256 79 -248
91 -281 100 -271 2 2 41 121 86 264 45 143 83 261 84 262 1 2 24 -111 50 -250
26 -138 49 -262 52 -274 4 -20 10 -23 55 -23 41 0 50 3 45 15 -4 12 -116 560
-116 571 0 2 -20 4 -44 4 -52 0 -43 17 -117 -230 -29 -96 -55 -178 -59 -183
-3 -4 -35 86 -71 200 l-65 208 -46 3 -47 3 -6 -38z"/>
<path d="M1585 1141 c-16 -4 -44 -15 -62 -24 -96 -50 -98 -163 -2 -212 15 -8
84 -24 151 -36 82 -14 138 -29 170 -46 100 -55 103 -164 6 -214 -90 -46 -245
-14 -299 63 -31 43 -38 122 -13 150 l19 21 -35 -6 c-21 -4 -47 -20 -64 -38
-24 -27 -28 -38 -23 -75 6 -59 40 -102 106 -133 48 -22 69 -26 151 -26 84 0
102 3 153 28 77 38 110 86 110 161 0 68 -28 117 -86 150 -52 30 -97 42 -211
56 -103 13 -143 30 -152 66 -16 65 42 104 153 104 70 0 137 -24 220 -80 l32
-21 15 30 c9 16 16 32 16 35 0 2 -26 14 -57 27 -62 23 -239 36 -298 20z"/>
<path d="M372 398 l1 -73 6 58 6 58 24 -46 c13 -25 27 -45 31 -45 10 0 52 71
46 77 -2 3 -13 -12 -24 -32 l-19 -38 -32 57 c-18 31 -34 56 -37 56 -2 0 -3
-33 -2 -72z"/>
<path d="M498 457 c-7 -22 4 -127 13 -127 12 0 12 127 0 134 -5 3 -11 0 -13
-7z"/>
<path d="M631 418 c-1 -63 20 -98 59 -98 39 0 60 35 59 98 l-2 57 -6 -58 c-5
-42 -12 -63 -26 -73 -10 -8 -22 -14 -25 -14 -3 0 -15 6 -25 14 -14 10 -21 31
-26 73 l-6 58 -2 -57z"/>
<path d="M865 454 c-23 -23 -15 -36 33 -59 46 -21 56 -49 21 -58 -12 -3 -33
-1 -48 4 -24 9 -25 8 -7 -6 23 -18 40 -19 67 -5 34 19 18 70 -22 70 -10 0 -25
7 -34 16 -22 23 -1 47 36 42 16 -3 26 -1 23 4 -9 14 -52 9 -69 -8z"/>
<path d="M1062 398 l-2 -78 45 0 c25 0 45 5 45 10 0 6 -18 10 -40 10 l-39 0
-4 68 -3 67 -2 -77z"/>
<path d="M1247 463 c-11 -10 -8 -133 3 -133 6 0 10 30 10 70 0 70 -1 76 -13
63z"/>
<path d="M1370 400 c0 -38 3 -70 8 -70 4 0 5 22 4 50 -2 27 0 50 5 50 4 0 18
-18 31 -40 12 -22 26 -40 30 -40 4 0 19 21 32 46 l25 45 6 -58 6 -58 1 73 c1
39 0 72 -2 72 -3 0 -19 -25 -37 -56 l-32 -57 -31 56 c-17 31 -34 57 -38 57 -5
0 -8 -31 -8 -70z"/>
<path d="M1642 458 c-21 -21 -14 -48 16 -59 15 -6 33 -14 41 -18 42 -21 2 -58
-43 -41 -14 5 -26 6 -26 1 0 -13 45 -22 67 -14 48 18 43 50 -13 73 -33 15 -45
25 -42 37 3 14 13 18 41 17 20 -1 34 3 31 7 -8 13 -58 11 -72 -3z"/>
<path d="M1833 400 c0 -41 2 -60 4 -42 4 31 6 32 53 32 47 0 49 -1 53 -32 2
-18 4 1 4 42 0 49 -2 63 -6 40 -6 -34 -7 -35 -51 -35 -44 0 -45 1 -51 35 -4
23 -6 9 -6 -40z"/>
<path d="M2075 445 c-28 -27 -30 -42 -14 -78 32 -69 139 -48 139 28 0 67 -78
98 -125 50z m95 -5 c20 -20 26 -56 12 -76 -25 -39 -90 -36 -111 5 -15 27 -14
35 10 65 25 31 61 34 89 6z"/>
<path d="M2311 398 c1 -40 4 -63 6 -50 3 17 11 22 34 22 27 0 69 29 69 48 0 4
-7 18 -16 30 -11 16 -25 22 -55 22 l-39 0 1 -72z m73 56 c9 -4 16 -18 16 -34
0 -29 -15 -40 -56 -40 -21 0 -24 4 -24 40 0 36 3 40 24 40 13 0 31 -3 40 -6z"/>
</g>
</svg>
